<svg id="Layer_1" data-name="Layer 1" xmlns="http://www.w3.org/2000/svg" viewBox="0 0 300 300"><defs><style>.cls-1{fill:#020202;}</style></defs><title>AAPL-Light_bg</title><path class="cls-1" d="M204.32,156.2c.28,30.3,26.46,40.37,26.74,40.51a108.46,108.46,0,0,1-13.76,28.45c-8.3,12.21-16.88,24.34-30.51,24.62-13.33.21-17.59-7.94-32.85-7.94s-20,7.66-32.63,8.23c-13.13.49-23.06-13.2-31.43-25.33-17.1-24.83-30.15-70.17-12.63-100.82C86,108.74,101.58,99.09,118.47,98.8c12.84-.21,25,8.66,32.85,8.66s22.63-10.78,38.1-9.15c6.53.28,24.69,2.62,36.39,19.86-.92.5-21.71,12.7-21.49,38m-25-74.35c7-8.45,11.64-20.22,10.36-31.93-10,.43-22.13,6.74-29.37,15.18C153.8,72.62,148.2,84.54,149.69,96c11.21.85,22.63-5.75,29.58-14.19"/></svg>